<?xml version="1.0" encoding="UTF-8" standalone="no"?>
<!-- Generator: Adobe Illustrator 16.0.0, SVG Export Plug-In . SVG Version: 6.00 Build 0)  -->

<svg
   xmlns:dc="http://purl.org/dc/elements/1.1/"
   xmlns:cc="http://creativecommons.org/ns#"
   xmlns:rdf="http://www.w3.org/1999/02/22-rdf-syntax-ns#"
   xmlns:svg="http://www.w3.org/2000/svg"
   xmlns="http://www.w3.org/2000/svg"
   xmlns:sodipodi="http://sodipodi.sourceforge.net/DTD/sodipodi-0.dtd"
   xmlns:inkscape="http://www.inkscape.org/namespaces/inkscape"
   version="1.1"
   id="Capa_1"
   x="0px"
   y="0px"
   width="561px"
   height="561px"
   viewBox="0 0 561 561"
   style="enable-background:new 0 0 561 561;"
   xml:space="preserve"
   sodipodi:docname="visibility-button.svg"
   inkscape:version="0.92.1 r15371"
   inkscape:export-filename="/media/azzamsya/rhd/azzamsa-mg/machine-management-mg/machine-tmp-mg/downloads-tmp/foo.png"
   inkscape:export-xdpi="4.0500083"
   inkscape:export-ydpi="4.0500083"><metadata
     id="metadata42"><rdf:RDF><cc:Work
         rdf:about=""><dc:format>image/svg+xml</dc:format><dc:type
           rdf:resource="http://purl.org/dc/dcmitype/StillImage" /></cc:Work></rdf:RDF></metadata><defs
     id="defs40" /><sodipodi:namedview
     pagecolor="#ffffff"
     bordercolor="#666666"
     borderopacity="1"
     objecttolerance="10"
     gridtolerance="10"
     guidetolerance="10"
     inkscape:pageopacity="0"
     inkscape:pageshadow="2"
     inkscape:window-width="1920"
     inkscape:window-height="1008"
     id="namedview38"
     showgrid="false"
     inkscape:zoom="0.42067736"
     inkscape:cx="-143.81568"
     inkscape:cy="280.5"
     inkscape:window-x="0"
     inkscape:window-y="44"
     inkscape:window-maximized="0"
     inkscape:current-layer="Capa_1" /><g
     id="g7"
     transform="translate(-960.35593,-194.92373)" /><g
     id="g9"
     transform="translate(-960.35593,-194.92373)" /><g
     id="g11"
     transform="translate(-960.35593,-194.92373)" /><g
     id="g13"
     transform="translate(-960.35593,-194.92373)" /><g
     id="g15"
     transform="translate(-960.35593,-194.92373)" /><g
     id="g17"
     transform="translate(-960.35593,-194.92373)" /><g
     id="g19"
     transform="translate(-960.35593,-194.92373)" /><g
     id="g21"
     transform="translate(-960.35593,-194.92373)" /><g
     id="g23"
     transform="translate(-960.35593,-194.92373)" /><g
     id="g25"
     transform="translate(-960.35593,-194.92373)" /><g
     id="g27"
     transform="translate(-960.35593,-194.92373)" /><g
     id="g29"
     transform="translate(-960.35593,-194.92373)" /><g
     id="g31"
     transform="translate(-960.35593,-194.92373)" /><g
     id="g33"
     transform="translate(-960.35593,-194.92373)" /><g
     id="g35"
     transform="translate(-960.35593,-194.92373)" /><g
     id="g4551"
     transform="matrix(0.51428569,0,0,0.51428569,700.43492,228.55225)"><path
       style="fill:#3366ff;fill-opacity:0.94117647;stroke-width:1.92796612"
       inkscape:connector-curvature="0"
       id="path2"
       d="m -816.54025,-281.58051 c -245.81565,0 -457.21715,152.40572 -540.79445,368.723519 83.5773,216.317801 294.9788,368.723511 540.79445,368.723511 245.81568,0 457.21716,-152.40571 540.79449,-368.723511 -83.57733,-216.317799 -294.97881,-368.723519 -540.79449,-368.723519 z m 0,614.5392 c -137.65678,0 -245.81565,-108.1589 -245.81565,-245.815681 0,-137.656782 108.15887,-245.815679 245.81565,-245.815679 137.65678,0 245.81568,108.158897 245.81568,245.815679 0,137.656781 -108.1589,245.815681 -245.81568,245.815681 z m 0,-393.30509 c -83.57733,0 -147.48941,63.9120764 -147.48941,147.489409 0,83.577331 63.91208,147.489411 147.48941,147.489411 83.57733,0 147.48941,-63.91208 147.48941,-147.489411 0,-83.5773326 -63.91208,-147.489409 -147.48941,-147.489409 z" /><ellipse
       ry="153.32416"
       rx="150.56076"
       cy="84.010612"
       cx="-816.15405"
       id="path4547"
       style="opacity:1;fill:#99ccff;fill-opacity:0.94117647;stroke:none;stroke-width:17.0170536;stroke-linecap:round;stroke-miterlimit:4;stroke-dasharray:none;stroke-dashoffset:0;stroke-opacity:1" /></g></svg>